<svg width="57" height="57" viewBox="0 0 57 57" fill="none" xmlns="http://www.w3.org/2000/svg">
<g id="Group">
<path id="Rounded Rectangle 528 copy" opacity="0.1" fill-rule="evenodd" clip-rule="evenodd" d="M24.5416 0.791616H32.4583C45.575 0.791616 56.2083 11.4246 56.2083 24.5416V32.4583C56.2083 45.5748 45.575 56.2082 32.4583 56.2082H24.5416C11.4249 56.2082 0.791673 45.5748 0.791673 32.4583V24.5416C0.791673 11.4246 11.4249 0.791616 24.5416 0.791616Z" fill="url(#paint0_linear_1_483)"/>
<path id="Combined shape 16704" fill-rule="evenodd" clip-rule="evenodd" d="M31.2172 32.9626C31.385 32.7923 31.469 32.5914 31.469 32.3591V30.2148H40.375V36.6481C40.375 37.2372 40.1675 37.7424 39.7522 38.1621C39.337 38.5821 38.8377 38.792 38.2546 38.792H18.7457C18.1625 38.792 17.6632 38.5821 17.248 38.1621C16.8326 37.7424 16.625 37.2372 16.625 36.6481V30.2148H25.5313V32.3591C25.5313 32.5914 25.6153 32.7923 25.7831 32.9626C25.951 33.132 26.1498 33.2171 26.3797 33.2171H30.6207C30.8503 33.2171 31.0493 33.132 31.2172 32.9626ZM30.1967 30.2148H26.8036V31.93H30.1967V30.2148ZM39.7522 22.2675C39.337 21.8469 38.8377 21.6371 38.2547 21.6371H33.5893V19.4928C33.5893 19.1353 33.4657 18.8318 33.2182 18.5811C32.971 18.3317 32.6704 18.2061 32.3172 18.2061H24.6832C24.3298 18.2061 24.0294 18.3317 23.782 18.5811C23.5346 18.8314 23.4109 19.1353 23.4109 19.4928V21.6371H18.7457C18.1625 21.6371 17.6632 21.8469 17.248 22.2675C16.8326 22.6867 16.625 23.1915 16.625 23.7814V28.9281H40.375V23.7814C40.375 23.1915 40.1676 22.6867 39.7522 22.2675ZM31.893 21.6371H25.1073V19.9214H31.893V21.6371Z" fill="#FF4550"/>
</g>
<defs>
<linearGradient id="paint0_linear_1_483" x1="32.7855" y1="89.7855" x2="89.7855" y2="24.2145" gradientUnits="userSpaceOnUse">
<stop stop-color="#FF416C"/>
<stop offset="1" stop-color="#FF4B2B"/>
</linearGradient>
</defs>
</svg>
